#!OML:ASF X:\für Bonn\!DataBase\2005_08_11_Bastian_Final\c3d\Bastian.ASF
:FULLY-SPECIFIED
:DEGREES
321
root 14.9956 17.3675 -1.09615 1090.95 -77.4167 -17.2551
lowerback 21.6448 1.05236 -1.78437
upperback 15.2334 -0.161525 -1.7563
thorax 4.60692 -0.65102 -0.897665
lowerneck -9.88224 -7.34711 0.185236
upperneck -9.93452 -9.72798 16.7174
head -0.440304 -5.30962 4.71166
rclavicle 2.8625e-014 4.53229e-014
rhumerus -11.8704 25.47 -81.6243
rradius 32.1182
rwrist -7.99723
rhand -19.7904 7.26286
rfingers 7.12502
rthumb 6.54212 -22.6161
lclavicle 2.8625e-014 4.53229e-014
lhumerus -4.88338 -12.4364 -281.118
lradius 25.4299
lwrist -335.568
lhand -15.6141 -9.62899
lfingers 7.12502
lthumb 10.5724 20.0851
rfemur -23.2345 -5.03713 23.7832
rtibia 63.8632
rfoot -13.0318 -6.52891
rtoes -2.97052
lfemur 3.1744 3.96873 -16.6977
ltibia 26.0441
lfoot -15.0099 -8.46072
ltoes -5.55896
322
root 14.9121 17.3768 -1.07225 1091.39 -77.6237 -17.7611
lowerback 21.2112 0.900268 -1.73759
upperback 15.0883 -0.314272 -1.70701
thorax 4.65238 -0.716907 -0.843979
lowerneck -9.78405 -7.27955 -0.0392181
upperneck -9.74923 -9.62813 16.8224
head -0.389562 -5.24231 4.78048
rclavicle -5.56597e-015 -1.66979e-014
rhumerus -12.6962 24.1408 -81.9553
rradius 31.768
rwrist -7.79352
rhand -19.8062 7.45315
rfingers 7.12502
rthumb 6.52694 -22.4263
lclavicle -5.56597e-015 -1.66979e-014
lhumerus -4.80295 -12.4456 -281.121
lradius 25.4814
lwrist -335.526
lhand -15.5878 -9.59826
lfingers 7.12502
lthumb 10.5977 20.1145
rfemur -23.8749 -5.22407 23.8485
rtibia 63.6336
rfoot -13.2633 -6.21579
rtoes -2.58955
lfemur 4.05071 4.26363 -16.5816
ltibia 25.1506
lfoot -14.9314 -8.51897
ltoes -5.79006
323
root 14.8282 17.3855 -1.04866 1091.77 -77.8163 -18.229
lowerback 20.7839 0.750547 -1.68688
upperback 14.978 -0.468307 -1.64807
thorax 4.73633 -0.785541 -0.784435
lowerneck -9.78098 -7.22015 -0.319916
upperneck -9.54309 -9.54244 16.9673
head -0.310951 -5.17626 4.86547
rclavicle -2.22639e-014 2.38542e-015
rhumerus -13.4095 22.7383 -82.2103
rradius 31.3467
rwrist -7.39949
rhand -19.9769 7.51199
rfingers 7.12502
rthumb 6.36213 -22.3725
lclavicle -2.22639e-014 2.38542e-015
lhumerus -4.66096 -12.3789 -281.077
lradius 25.5189
lwrist -335.491
lhand -15.5342 -9.5669
lfingers 7.12502
lthumb 10.6495 20.1432
rfemur -24.4737 -5.42531 23.9025
rtibia 63.2955
rfoot -13.4529 -5.89792
rtoes -2.43217
lfemur 4.95539 4.55457 -16.4689
ltibia 24.2213
lfoot -14.8225 -8.5804
ltoes -6.09664
324
root 14.7439 17.3921 -1.02581 1092.26 -77.9804 -18.7955
lowerback 20.3827 0.59435 -1.61436
upperback 14.8626 -0.62937 -1.57639
thorax 4.80298 -0.856466 -0.723622
lowerneck -9.6988 -7.15982 -0.56763
upperneck -9.38753 -9.44894 17.0598
head -0.266399 -5.1132 4.93488
rclavicle 1.27222e-014 -3.18055e-014
rhumerus -14.1475 21.3313 -82.4184
rradius 30.8866
rwrist -6.87229
rhand -20.2922 7.57859
rfingers 7.12502
rthumb 6.0577 -22.3148
lclavicle 1.27222e-014 -3.18055e-014
lhumerus -4.53857 -12.3193 -281.036
lradius 25.5819
lwrist -335.381
lhand -15.4295 -9.57186
lfingers 7.12502
lthumb 10.7505 20.1331
rfemur -25.0168 -5.61167 23.9914
rtibia 62.833
rfoot -13.6146 -5.63886
rtoes -2.14378
lfemur 5.85412 4.81778 -16.3271
ltibia 23.2904
lfoot -14.701 -8.6372
ltoes -6.28183
325
root 14.6591 17.3966 -1.00391 1092.7 -78.1318 -19.3195
lowerback 19.9943 0.441257 -1.56769
upperback 14.7427 -0.791778 -1.48228
thorax 4.85995 -0.931058 -0.625391
lowerneck -9.59398 -7.09552 -0.829674
upperneck -9.23355 -9.34698 17.1034
head -0.229573 -5.0454 4.99348
rclavicle -1.59028e-015 4.69132e-014
rhumerus -14.8538 20.0067 -82.5401
rradius 30.4061
rwrist -6.46955
rhand -20.5625 7.65385
rfingers 7.12502
rthumb 5.79672 -22.2469
lclavicle -1.59028e-015 4.69132e-014
lhumerus -4.46673 -12.2369 -280.945
lradius 25.6799
lwrist -335.288
lhand -15.3581 -9.59951
lfingers 7.12502
lthumb 10.8193 20.1018
rfemur -25.5282 -5.77415 24.0696
rtibia 62.2724
rfoot -13.763 -5.38706
rtoes -1.70906
lfemur 6.7513 5.07932 -16.1792
ltibia 22.3651
lfoot -14.5908 -8.73073
ltoes -6.43947
326
root 14.573 17.3996 -0.982844 1093.07 -78.2783 -19.7412
lowerback 19.5874 0.291083 -1.51614
upperback 14.6371 -0.95109 -1.41807
thorax 4.94381 -1.00265 -0.564692
lowerneck -9.57043 -7.0403 -0.909428
upperneck -9.05118 -9.2828 16.9955
head -0.187905 -4.99586 4.97248
rclavicle 7.95139e-015 4.29375e-014
rhumerus -15.4837 18.5066 -82.6383
rradius 29.8822
rwrist -6.01576
rhand -20.7186 7.66714
rfingers 7.12502
rthumb 5.64607 -22.2376
lclavicle 7.95139e-015 4.29375e-014
lhumerus -4.40747 -12.2928 -280.913
lradius 25.8639
lwrist -334.98
lhand -15.2868 -9.58393
lfingers 7.12502
lthumb 10.8881 20.1138
rfemur -26.0177 -5.93136 24.1369
rtibia 61.6114
rfoot -13.8561 -5.2329
rtoes -1.46665
lfemur 7.61435 5.3325 -16.061
ltibia 21.4557
lfoot -14.4582 -8.80555
ltoes -6.68599
327
root 14.4864 17.4005 -0.962691 1093.64 -78.4332 -20.359
lowerback 19.2143 0.150189 -1.4401
upperback 14.5071 -1.09571 -1.33244
thorax 4.98405 -1.06504 -0.497215
lowerneck -9.50476 -6.9977 -1.04222
upperneck -8.85243 -9.22882 16.8889
head -0.144454 -4.94967 4.96075
rclavicle 9.54166e-015 -8.74653e-015
rhumerus -16.2182 17.2324 -82.7148
rradius 29.454
rwrist -5.8418
rhand -20.8929 7.58963
rfingers 7.12502
rthumb 5.47773 -22.3196
lclavicle 9.54166e-015 -8.74653e-015
lhumerus -4.40744 -12.3275 -280.837
lradius 26.0598
lwrist -334.682
lhand -15.3034 -9.59777
lfingers 7.12502
lthumb 10.8721 20.1008
rfemur -26.4822 -6.09958 24.2617
rtibia 60.8749
rfoot -13.9299 -5.1288
rtoes -1.7429
lfemur 8.46796 5.50436 -15.9251
ltibia 20.5646
lfoot -14.3585 -8.81266
ltoes -6.62968
328
root 14.3994 17.3996 -0.942888 1093.96 -78.5781 -20.7198
lowerback 18.8722 0.00752741 -1.39898
upperback 14.3598 -1.24791 -1.25923
thorax 4.99062 -1.13254 -0.422496
lowerneck -9.33812 -6.94646 -1.19189
upperneck -8.7459 -9.147 16.7993
head -0.144985 -4.89964 4.9645
rclavicle -4.29375e-014 -1.90833e-014
rhumerus -16.9665 15.9694 -82.7722
rradius 29.0256
rwrist -5.60681
rhand -20.9692 7.32525
rfingers 7.12502
rthumb 5.4041 -22.5858
lclavicle -4.29375e-014 -1.90833e-014
lhumerus -4.43743 -12.3278 -280.747
lradius 26.271
lwrist -334.435
lhand -15.3937 -9.56431
lfingers 7.12502
lthumb 10.785 20.1388
rfemur -26.9165 -6.34394 24.3298
rtibia 60.0673
rfoot -13.9826 -5.03918
rtoes -2.12192
lfemur 9.30288 5.70982 -15.8255
ltibia 19.7067
lfoot -14.271 -8.88309
ltoes -6.58479
329
root 14.3115 17.3963 -0.924419 1094.4 -78.7276 -21.1796
lowerback 18.5062 -0.122503 -1.35707
upperback 14.227 -1.38507 -1.17865
thorax 5.0273 -1.19338 -0.344697
lowerneck -9.2432 -6.89673 -1.29944
upperneck -8.61105 -9.07809 16.6941
head -0.127727 -4.85306 4.95297
rclavicle 2.3059e-014 1.90833e-014
rhumerus -17.7284 14.9934 -82.8179
rradius 28.6961
rwrist -5.6428
rhand -21.0503 6.90663
rfingers 7.12502
rthumb 5.32576 -23.0064
lclavicle 2.3059e-014 1.90833e-014
lhumerus -4.40695 -12.4197 -280.674
lradius 26.4855
lwrist -334.089
lhand -15.449 -9.51006
lfingers 7.12502
lthumb 10.7317 20.1958
rfemur -27.3446 -6.58335 24.4298
rtibia 59.2103
rfoot -13.9337 -4.95582
rtoes -2.26222
lfemur 10.0976 5.89439 -15.7212
ltibia 18.8827
lfoot -14.2233 -8.89365
ltoes -6.7713
330
root 14.2224 17.3922 -0.906356 1095.08 -78.8478 -21.8554
lowerback 18.1265 -0.258216 -1.24916
upperback 14.0987 -1.52192 -1.08555
thorax 5.0762 -1.24957 -0.292329
lowerneck -9.14221 -6.85408 -1.46484
upperneck -8.5128 -9.00957 16.6416
head -0.115972 -4.80849 4.96763
rclavicle 2.62396e-014 -3.18055e-015
rhumerus -18.4709 14.0006 -82.8325
rradius 28.3793
rwrist -5.6582
rhand -21.0892 6.42654
rfingers 7.12502
rthumb 5.28825 -23.4875
lclavicle 2.62396e-014 -3.18055e-015
lhumerus -4.38309 -12.5381 -280.587
lradius 26.7076
lwrist -333.818
lhand -15.53 -9.41321
lfingers 7.12502
lthumb 10.6535 20.2967
rfemur -27.7589 -6.84276 24.5959
rtibia 58.3116
rfoot -13.8811 -4.90212
rtoes -2.69392
lfemur 10.8736 6.06964 -15.5624
ltibia 18.0643
lfoot -14.1798 -8.91686
ltoes -6.95354
331
root 14.1331 17.3857 -0.888762 1095.51 -78.988 -22.2882
lowerback 17.7978 -0.383031 -1.19571
upperback 13.9393 -1.65175 -1.00166
thorax 5.06607 -1.30484 -0.219081
lowerneck -8.93127 -6.80357 -1.60105
upperneck -8.47088 -8.9224 16.5557
head -0.143881 -4.76258 4.97394
rclavicle 1.90833e-014 7.15625e-015
rhumerus -19.2281 13.049 -82.8241
rradius 28.0045
rwrist -5.66402
rhand -21.0892 5.93797
rfingers 7.12502
rthumb 5.28821 -23.9761
lclavicle 1.90833e-014 7.15625e-015
lhumerus -4.45265 -12.7931 -280.474
lradius 26.9698
lwrist -333.592
lhand -15.6652 -9.31218
lfingers 7.12502
lthumb 10.5231 20.4044
rfemur -28.139 -7.06823 24.7079
rtibia 57.3923
rfoot -13.9014 -4.85989
rtoes -2.95917
lfemur 11.6558 6.16665 -15.4853
ltibia 17.2571
lfoot -14.1426 -8.87221
ltoes -6.93219
332
root 14.0426 17.3791 -0.87247 1095.96 -79.1087 -22.7397
lowerback 17.4395 -0.491836 -1.16112
upperback 13.8231 -1.76746 -0.890184
thorax 5.12247 -1.3578 -0.111157
lowerneck -8.84834 -6.77725 -1.80016
upperneck -8.37246 -8.87392 16.5137
head -0.125289 -4.72646 4.9955
rclavicle -1.98785e-015 -2.22639e-014
rhumerus -19.9216 12.2826 -82.7584
rradius 27.6549
rwrist -5.77231
rhand -21.1536 5.468
rfingers 7.12502
rthumb 5.22603 -24.4476
lclavicle -1.98785e-015 -2.22639e-014
lhumerus -4.45176 -13.0232 -280.313
lradius 27.2363
lwrist -333.531
lhand -15.7379 -9.15995
lfingers 7.12502
lthumb 10.453 20.5602
rfemur -28.5011 -7.25633 24.8437
rtibia 56.457
rfoot -13.9714 -4.91972
rtoes -3.44461
lfemur 12.4262 6.27892 -15.3921
ltibia 16.4502
lfoot -14.136 -8.83409
ltoes -7.17058
